HIERARCHY
ROOT mixamorig:Hips
{
	OFFSET -0.000008 104.274872 1.554316
	CHANNELS 6 Xposition Yposition Zposition Xrotation Yrotation Zrotation
	JOINT mixamorig:Spine
	{
		OFFSET -0.000005 10.181595 0.131519
		CHANNELS 6 Xposition Yposition Zposition Xrotation Yrotation Zrotation
		JOINT mixamorig:Spine1
		{
			OFFSET -0.000000 9.893959 -1.470707
			CHANNELS 6 Xposition Yposition Zposition Xrotation Yrotation Zrotation
			JOINT mixamorig:Spine2
			{
				OFFSET -0.000000 9.220757 -1.370641
				CHANNELS 6 Xposition Yposition Zposition Xrotation Yrotation Zrotation
				JOINT mixamorig:Neck
				{
					OFFSET 0.000001 16.740417 -2.049036
					CHANNELS 6 Xposition Yposition Zposition Xrotation Yrotation Zrotation
					JOINT mixamorig:Head
					{
						OFFSET 0.000000 9.617874 1.685006
						CHANNELS 6 Xposition Yposition Zposition Xrotation Yrotation Zrotation
						JOINT mixamorig:HeadTop_End
						{
							OFFSET 0.000002 22.037354 7.501101
							CHANNELS 6 Xposition Yposition Zposition Xrotation Yrotation Zrotation
							End Site
							{
								OFFSET 0.000168 2310.654297 -282.823242
							}
						}
					}
				}
				JOINT mixamorig:RightShoulder
				{
					OFFSET -4.569970 11.014908 -2.160885
					CHANNELS 6 Xposition Yposition Zposition Xrotation Yrotation Zrotation
					JOINT mixamorig:RightArm
					{
						OFFSET -10.592851 -0.524811 -2.232101
						CHANNELS 6 Xposition Yposition Zposition Xrotation Yrotation Zrotation
						JOINT mixamorig:RightForeArm
						{
							OFFSET -27.841511 0.000031 -0.000004
							CHANNELS 6 Xposition Yposition Zposition Xrotation Yrotation Zrotation
							JOINT mixamorig:RightHand
							{
								OFFSET -28.328831 -0.000015 0.000015
								CHANNELS 6 Xposition Yposition Zposition Xrotation Yrotation Zrotation
								JOINT mixamorig:RightHandThumb1
								{
									OFFSET -2.464806 -1.573990 2.681852
									CHANNELS 6 Xposition Yposition Zposition Xrotation Yrotation Zrotation
									JOINT mixamorig:RightHandThumb2
									{
										OFFSET -3.215179 -1.872803 1.924282
										CHANNELS 6 Xposition Yposition Zposition Xrotation Yrotation Zrotation
										JOINT mixamorig:RightHandThumb3
										{
											OFFSET -2.654831 -1.527969 1.512609
											CHANNELS 6 Xposition Yposition Zposition Xrotation Yrotation Zrotation
											JOINT mixamorig:RightHandThumb4
											{
												OFFSET -2.018814 -1.152008 1.108052
												CHANNELS 6 Xposition Yposition Zposition Xrotation Yrotation Zrotation
												End Site
												{
													OFFSET -188.809540 -114.533607 132.431396
												}
											}
										}
									}
								}
								JOINT mixamorig:RightHandIndex1
								{
									OFFSET -9.108284 -0.517868 2.259835
									CHANNELS 6 Xposition Yposition Zposition Xrotation Yrotation Zrotation
									JOINT mixamorig:RightHandIndex2
									{
										OFFSET -3.699989 0.000000 0.001215
										CHANNELS 6 Xposition Yposition Zposition Xrotation Yrotation Zrotation
										JOINT mixamorig:RightHandIndex3
										{
											OFFSET -2.850006 0.000031 -0.000522
											CHANNELS 6 Xposition Yposition Zposition Xrotation Yrotation Zrotation
											JOINT mixamorig:RightHandIndex4
											{
												OFFSET -2.772186 -0.000015 -0.000020
												CHANNELS 6 Xposition Yposition Zposition Xrotation Yrotation Zrotation
												End Site
												{
													OFFSET -277.218445 0.000000 -0.050231
												}
											}
										}
									}
								}
								JOINT mixamorig:RightHandMiddle1
								{
									OFFSET -9.532516 -0.000031 -0.000023
									CHANNELS 6 Xposition Yposition Zposition Xrotation Yrotation Zrotation
									JOINT mixamorig:RightHandMiddle2
									{
										OFFSET -3.700005 -0.000015 0.003713
										CHANNELS 6 Xposition Yposition Zposition Xrotation Yrotation Zrotation
										JOINT mixamorig:RightHandMiddle3
										{
											OFFSET -2.949974 0.000015 -0.002054
											CHANNELS 6 Xposition Yposition Zposition Xrotation Yrotation Zrotation
											JOINT mixamorig:RightHandMiddle4
											{
												OFFSET -2.946640 0.000000 -0.000156
												CHANNELS 6 Xposition Yposition Zposition Xrotation Yrotation Zrotation
												End Site
												{
													OFFSET -294.664337 0.000000 -0.113670
												}
											}
										}
									}
								}
								JOINT mixamorig:RightHandRing1
								{
									OFFSET -9.103600 -0.043076 -1.865134
									CHANNELS 6 Xposition Yposition Zposition Xrotation Yrotation Zrotation
									JOINT mixamorig:RightHandRing2
									{
										OFFSET -3.379288 0.000000 -0.001055
										CHANNELS 6 Xposition Yposition Zposition Xrotation Yrotation Zrotation
										JOINT mixamorig:RightHandRing3
										{
											OFFSET -2.889687 -0.000015 0.000379
											CHANNELS 6 Xposition Yposition Zposition Xrotation Yrotation Zrotation
											JOINT mixamorig:RightHandRing4
											{
												OFFSET -2.638809 -0.000015 0.000941
												CHANNELS 6 Xposition Yposition Zposition Xrotation Yrotation Zrotation
												End Site
												{
													OFFSET -263.880371 0.000000 0.516020
												}
											}
										}
									}
								}
								JOINT mixamorig:RightHandPinky1
								{
									OFFSET -8.076683 -0.486710 -3.806280
									CHANNELS 6 Xposition Yposition Zposition Xrotation Yrotation Zrotation
									JOINT mixamorig:RightHandPinky2
									{
										OFFSET -3.600014 -0.000015 -0.003747
										CHANNELS 6 Xposition Yposition Zposition Xrotation Yrotation Zrotation
										JOINT mixamorig:RightHandPinky3
										{
											OFFSET -2.099983 0.000000 -0.005739
											CHANNELS 6 Xposition Yposition Zposition Xrotation Yrotation Zrotation
											JOINT mixamorig:RightHandPinky4
											{
												OFFSET -2.115768 -0.000031 -0.003680
												CHANNELS 6 Xposition Yposition Zposition Xrotation Yrotation Zrotation
												End Site
												{
													OFFSET -211.577087 0.000000 -0.350686
												}
											}
										}
									}
								}
							}
						}
					}
				}
				JOINT mixamorig:LeftShoulder
				{
					OFFSET 4.570447 11.014725 -2.160855
					CHANNELS 6 Xposition Yposition Zposition Xrotation Yrotation Zrotation
					JOINT mixamorig:LeftArm
					{
						OFFSET 10.592371 -0.524597 -2.232119
						CHANNELS 6 Xposition Yposition Zposition Xrotation Yrotation Zrotation
						JOINT mixamorig:LeftForeArm
						{
							OFFSET 27.841532 -0.000031 0.000026
							CHANNELS 6 Xposition Yposition Zposition Xrotation Yrotation Zrotation
							JOINT mixamorig:LeftHand
							{
								OFFSET 28.328846 -0.000061 0.000022
								CHANNELS 6 Xposition Yposition Zposition Xrotation Yrotation Zrotation
								JOINT mixamorig:LeftHandThumb1
								{
									OFFSET 2.466141 -1.576172 2.681732
									CHANNELS 6 Xposition Yposition Zposition Xrotation Yrotation Zrotation
									JOINT mixamorig:LeftHandThumb2
									{
										OFFSET 3.217812 -1.872070 1.916482
										CHANNELS 6 Xposition Yposition Zposition Xrotation Yrotation Zrotation
										JOINT mixamorig:LeftHandThumb3
										{
											OFFSET 2.656029 -1.528778 1.514513
											CHANNELS 6 Xposition Yposition Zposition Xrotation Yrotation Zrotation
											JOINT mixamorig:LeftHandThumb4
											{
												OFFSET 2.020889 -1.154053 1.115139
												CHANNELS 6 Xposition Yposition Zposition Xrotation Yrotation Zrotation
												End Site
												{
													OFFSET 190.885437 -115.081749 130.048782
												}
											}
										}
									}
								}
								JOINT mixamorig:LeftHandIndex1
								{
									OFFSET 9.109314 -0.518021 2.259871
									CHANNELS 6 Xposition Yposition Zposition Xrotation Yrotation Zrotation
									JOINT mixamorig:LeftHandIndex2
									{
										OFFSET 3.699989 0.000000 -0.000322
										CHANNELS 6 Xposition Yposition Zposition Xrotation Yrotation Zrotation
										JOINT mixamorig:LeftHandIndex3
										{
											OFFSET 2.850006 0.000000 0.000352
											CHANNELS 6 Xposition Yposition Zposition Xrotation Yrotation Zrotation
											JOINT mixamorig:LeftHandIndex4
											{
												OFFSET 2.774864 -0.000031 -0.000027
												CHANNELS 6 Xposition Yposition Zposition Xrotation Yrotation Zrotation
												End Site
												{
													OFFSET 277.486267 0.000000 -0.009857
												}
											}
										}
									}
								}
								JOINT mixamorig:LeftHandMiddle1
								{
									OFFSET 9.533394 0.000061 0.000044
									CHANNELS 6 Xposition Yposition Zposition Xrotation Yrotation Zrotation
									JOINT mixamorig:LeftHandMiddle2
									{
										OFFSET 3.699989 -0.000015 -0.000231
										CHANNELS 6 Xposition Yposition Zposition Xrotation Yrotation Zrotation
										JOINT mixamorig:LeftHandMiddle3
										{
											OFFSET 2.949997 -0.000015 -0.000059
											CHANNELS 6 Xposition Yposition Zposition Xrotation Yrotation Zrotation
											JOINT mixamorig:LeftHandMiddle4
											{
												OFFSET 2.952896 0.000031 0.000063
												CHANNELS 6 Xposition Yposition Zposition Xrotation Yrotation Zrotation
												End Site
												{
													OFFSET 295.289337 0.000000 0.022810
												}
											}
										}
									}
								}
								JOINT mixamorig:LeftHandRing1
								{
									OFFSET 9.104523 -0.042999 -1.865074
									CHANNELS 6 Xposition Yposition Zposition Xrotation Yrotation Zrotation
									JOINT mixamorig:LeftHandRing2
									{
										OFFSET 3.150009 -0.000031 0.000043
										CHANNELS 6 Xposition Yposition Zposition Xrotation Yrotation Zrotation
										JOINT mixamorig:LeftHandRing3
										{
											OFFSET 2.949982 -0.000015 0.000040
											CHANNELS 6 Xposition Yposition Zposition Xrotation Yrotation Zrotation
											JOINT mixamorig:LeftHandRing4
											{
												OFFSET 2.644348 0.000000 0.000057
												CHANNELS 6 Xposition Yposition Zposition Xrotation Yrotation Zrotation
												End Site
												{
													OFFSET 264.434631 0.000000 0.012105
												}
											}
										}
									}
								}
								JOINT mixamorig:LeftHandPinky1
								{
									OFFSET 8.077789 -0.486847 -3.806259
									CHANNELS 6 Xposition Yposition Zposition Xrotation Yrotation Zrotation
									JOINT mixamorig:LeftHandPinky2
									{
										OFFSET 3.599953 0.000031 0.014727
										CHANNELS 6 Xposition Yposition Zposition Xrotation Yrotation Zrotation
										JOINT mixamorig:LeftHandPinky3
										{
											OFFSET 2.100021 0.000015 0.007705
											CHANNELS 6 Xposition Yposition Zposition Xrotation Yrotation Zrotation
											JOINT mixamorig:LeftHandPinky4
											{
												OFFSET 2.125504 0.000031 0.007517
												CHANNELS 6 Xposition Yposition Zposition Xrotation Yrotation Zrotation
												End Site
												{
													OFFSET 212.550781 0.000000 0.625752
												}
											}
										}
									}
								}
							}
						}
					}
				}
			}
		}
	}
	JOINT mixamorig:RightUpLeg
	{
		OFFSET -8.207787 -6.751648 -1.599560
		CHANNELS 6 Xposition Yposition Zposition Xrotation Yrotation Zrotation
		JOINT mixamorig:RightLeg
		{
			OFFSET -0.000002 -44.370117 0.345942
			CHANNELS 6 Xposition Yposition Zposition Xrotation Yrotation Zrotation
			JOINT mixamorig:RightFoot
			{
				OFFSET 0.000003 -44.423679 -3.043532
				CHANNELS 6 Xposition Yposition Zposition Xrotation Yrotation Zrotation
				JOINT mixamorig:RightToeBase
				{
					OFFSET -0.000002 -8.728671 10.710558
					CHANNELS 6 Xposition Yposition Zposition Xrotation Yrotation Zrotation
					JOINT mixamorig:RightToe_End
					{
						OFFSET -0.000001 -0.000679 9.278119
						CHANNELS 6 Xposition Yposition Zposition Xrotation Yrotation Zrotation
						End Site
						{
							OFFSET 0.000000 -0.067690 927.812134
						}
					}
				}
			}
		}
	}
	JOINT mixamorig:LeftUpLeg
	{
		OFFSET 8.207793 -6.751686 -1.599556
		CHANNELS 6 Xposition Yposition Zposition Xrotation Yrotation Zrotation
		JOINT mixamorig:LeftLeg
		{
			OFFSET -0.000004 -44.370014 0.346954
			CHANNELS 6 Xposition Yposition Zposition Xrotation Yrotation Zrotation
			JOINT mixamorig:LeftFoot
			{
				OFFSET -0.000001 -44.423672 -3.044401
				CHANNELS 6 Xposition Yposition Zposition Xrotation Yrotation Zrotation
				JOINT mixamorig:LeftToeBase
				{
					OFFSET -0.000002 -8.728669 10.710558
					CHANNELS 6 Xposition Yposition Zposition Xrotation Yrotation Zrotation
					JOINT mixamorig:LeftToe_End
					{
						OFFSET -0.000003 -0.000679 9.278133
						CHANNELS 6 Xposition Yposition Zposition Xrotation Yrotation Zrotation
						End Site
						{
							OFFSET 0.000000 -0.068021 927.813477
						}
					}
				}
			}
		}
	}
}
MOTION
Frames: 3
Frame Time: 0.033333
0.000006 104.270477 1.554256 0.000010 0.000003 -0.000113 -0.000005 10.181587 0.131522 0.000001 -0.000003 0.000084 -0.000000 9.893967 -1.470711 0.000001 0.000000 -0.000000 -0.000000 9.220802 -1.370642 0.000000 -0.000000 -0.000000 0.000001 16.740433 -2.049030 0.000000 -0.000000 -0.000000 0.000000 9.617859 1.685014 0.000000 0.000000 0.000000 0.000002 22.037384 7.501101 0.000000 -0.000000 0.000000 -4.569968 11.014880 -2.160881 0.000008 0.000001 -0.000038 -10.592829 -0.524828 -2.231788 82.666094 49.142282 -43.815165 -27.841415 0.000009 0.000619 10.756529 114.038983 -16.509631 -28.328840 0.000007 0.000017 -0.000322 -0.000041 0.000003 -2.464325 -1.573879 2.682223 -50.300932 -135.304244 -15.159497 -3.214794 -1.872460 1.924619 120.952733 -7.874664 129.791858 -2.654671 -1.527629 1.512954 125.745149 16.692849 97.118842 -2.018819 -1.151996 1.108058 -0.000001 -0.000001 0.000002 -9.108335 -0.517755 2.260378 159.105186 10.006955 -51.044681 -3.699990 0.000017 0.001777 163.260933 11.709511 -69.595994 -2.850014 0.000044 0.000027 166.873474 10.073743 -74.900018 -2.772173 0.000001 -0.000027 -0.000001 0.000000 0.000001 -9.532543 0.000043 0.000529 161.362031 8.840485 -51.297087 -3.700007 0.000032 0.004259 164.006516 12.051428 -73.205462 -2.950017 0.000051 -0.001496 166.580049 8.982447 -67.398101 -2.946625 0.000011 -0.000166 0.000002 -0.000002 -0.000003 -9.103641 -0.042960 -1.864581 164.586413 6.522747 -45.350783 -3.379305 0.000056 -0.000512 165.081724 6.662934 -48.079259 -2.889730 0.000087 0.000941 167.323229 5.081773 -43.999054 -2.638818 -0.000005 0.000942 -0.000001 -0.000002 0.000004 -8.076684 -0.486583 -3.805724 168.856838 3.514257 -33.443687 -3.599984 0.000182 -0.003201 168.283526 0.174127 1.320734 -2.099980 0.000148 -0.005210 167.774322 0.695433 -4.538853 -2.115799 -0.000053 -0.003668 -0.000001 0.000000 -0.000006 4.570446 11.014691 -2.160851 -0.000018 0.000010 -0.000021 10.592532 -0.524532 -2.232395 71.943113 -64.525398 49.230907 27.841686 -0.000077 -0.000071 67.492248 -112.888246 90.412505 28.328836 -0.000045 0.000011 0.000017 -0.000090 -0.000002 2.466158 -1.576173 2.681883 118.109544 154.946065 -160.885352 3.217824 -1.871992 1.916534 -89.657646 38.404299 37.404995 2.656046 -1.528766 1.514602 -91.938089 32.301652 37.320731 2.020894 -1.154073 1.115150 -0.000000 0.000004 0.000004 9.109097 -0.517746 2.260020 -159.649716 -14.209424 -69.545949 3.699700 0.000216 -0.000173 197.396702 -19.515269 263.323026 2.849750 0.000244 0.000482 13.063686 -164.648363 80.698255 2.774893 -0.000059 -0.000022 0.000002 0.000002 0.000004 9.533216 0.000377 0.000195 -160.055907 -10.676045 -55.960146 3.699771 0.000292 -0.000084 200.308056 -15.061967 287.135798 2.949772 0.000250 0.000077 197.949018 -15.044349 280.199850 2.952853 -0.000048 0.000064 0.000002 -0.000002 -0.000001 9.104380 -0.042676 -1.864930 22.134813 -171.136195 136.764484 3.149817 0.000392 0.000202 21.931200 -170.324496 132.803630 2.949772 0.000443 0.000200 21.872726 190.418735 -230.522272 2.644322 0.000030 0.000059 0.000003 0.000002 -0.000002 8.077595 -0.486554 -3.806115 19.988419 -170.598168 128.873689 3.599826 0.000427 0.014885 203.955432 -5.436208 -386.648539 2.099907 0.000406 0.007864 203.908973 -4.839857 -24.001399 2.125525 -0.000032 0.007528 0.000000 -0.000001 0.000000 -8.207786 -6.751667 -1.599560 -0.077001 -0.000003 0.000080 -0.000002 -44.370110 0.345938 0.153719 -0.000000 -0.000000 0.000000 -44.423679 -3.043532 -0.076700 0.000000 -0.000002 -0.000006 -8.728667 10.710559 -0.000009 -0.000000 -0.000000 -0.000001 -0.000679 9.278123 0.000000 -0.000000 -0.000000 8.207792 -6.751710 -1.599556 -0.074518 -0.000003 0.000081 -0.000002 -44.370014 0.346960 0.148822 0.000002 0.000000 -0.000001 -44.423664 -3.044403 -0.074314 0.000000 -0.000002 -0.000004 -8.728671 10.710558 0.000007 -0.000000 -0.000000 0.000000 -0.000680 9.278137 -0.000000 0.000000 -0.000001 
0.000006 104.270477 1.554256 0.000010 0.000003 -0.000113 -0.000005 10.181587 0.131522 0.000001 -0.000003 0.000084 -0.000000 9.893967 -1.470711 0.000001 0.000000 -0.000000 -0.000000 9.220802 -1.370642 0.000000 -0.000000 -0.000000 0.000001 16.740433 -2.049030 0.000000 -0.000000 -0.000000 0.000000 9.617859 1.685014 0.000000 0.000000 0.000000 0.000002 22.037384 7.501101 0.000000 -0.000000 0.000000 -4.569968 11.014880 -2.160881 0.000008 0.000001 -0.000038 -10.592850 -0.524810 -2.231822 82.573039 42.313654 -37.538972 -27.841413 0.000027 0.000633 9.452002 114.254756 -14.579969 -28.328831 0.000006 0.000019 -0.000318 -0.000045 0.000008 -2.464331 -1.573889 2.682211 -48.927411 -134.719689 -12.884010 -3.214776 -1.872463 1.924596 120.964549 -7.450084 129.457001 -2.654687 -1.527616 1.512946 125.861617 16.921080 96.836557 -2.018830 -1.151992 1.108056 -0.000001 -0.000000 0.000000 -9.108352 -0.517781 2.260373 159.042813 10.254017 -52.003332 -3.700004 0.000020 0.001765 162.267755 12.007604 -67.829625 -2.850022 0.000063 0.000041 165.586298 10.244779 -70.658751 -2.772160 0.000003 -0.000016 0.000000 0.000000 0.000002 -9.532567 0.000031 0.000519 161.086542 9.090826 -51.865103 -3.700009 0.000025 0.004291 162.929190 12.267459 -70.603932 -2.950045 0.000067 -0.001522 165.224926 9.164020 -63.386847 -2.946641 0.000004 -0.000159 0.000000 0.000000 0.000001 -9.103637 -0.042980 -1.864575 163.989195 6.989797 -46.639650 -3.379311 0.000087 -0.000515 163.362620 6.940908 -45.178044 -2.889758 0.000101 0.000930 165.926673 5.052548 -39.738215 -2.638803 -0.000004 0.000931 -0.000001 0.000003 0.000004 -8.076683 -0.486616 -3.805722 168.429323 4.147179 -37.903708 -3.600003 0.000142 -0.003209 167.574416 0.683801 -3.318337 -2.099997 0.000154 -0.005201 167.503231 0.875053 -6.052511 -2.115758 -0.000052 -0.003686 -0.000002 -0.000000 -0.000001 4.570446 11.014691 -2.160851 -0.000018 0.000010 -0.000021 10.592530 -0.524542 -2.232397 71.881327 -65.354966 49.878375 27.841696 -0.000070 -0.000069 62.511558 -113.105023 85.155807 28.328833 -0.000044 0.000011 0.000021 -0.000088 -0.000000 2.466172 -1.576149 2.681877 118.568177 164.243428 -161.992334 3.217829 -1.871981 1.916543 -91.397951 33.729848 36.863805 2.656057 -1.528763 1.514600 -95.238245 33.266805 39.623089 2.020892 -1.154085 1.115135 0.000000 0.000003 -0.000001 9.109144 -0.517691 2.259996 -160.058271 -9.763487 -51.800629 3.699815 0.000332 -0.000185 197.857699 -9.266974 305.392948 2.849839 0.000379 0.000479 16.634453 -171.966637 128.690750 2.774882 -0.000028 -0.000031 -0.000001 -0.000001 -0.000004 9.533270 0.000393 0.000188 -156.796118 -8.784851 -41.007052 3.699883 0.000350 -0.000080 203.668072 -8.110256 322.620024 2.949883 0.000357 0.000093 203.602379 -7.868333 323.554093 2.952861 -0.000015 0.000053 -0.000000 -0.000001 -0.000001 9.104414 -0.042653 -1.864933 24.848783 -172.909763 148.582419 3.149899 0.000381 0.000209 29.000321 -172.021661 149.814394 2.949863 0.000407 0.000216 30.876512 188.364159 -209.663667 2.644327 0.000031 0.000055 0.000001 0.000001 -0.000001 8.077667 -0.486513 -3.806105 25.003832 -171.862477 143.185285 3.599827 0.000425 0.014894 206.063297 -5.891626 -386.373693 2.099947 0.000412 0.007868 209.231712 -3.962984 -16.403611 2.125508 -0.000033 0.007514 0.000001 0.000001 0.000001 -8.207786 -6.751667 -1.599560 -0.077001 -0.000003 0.000080 -0.000002 -44.370110 0.345938 0.153719 -0.000000 -0.000000 0.000000 -44.423679 -3.043532 -0.076700 0.000000 -0.000002 -0.000006 -8.728667 10.710559 -0.000009 -0.000000 -0.000000 -0.000001 -0.000679 9.278123 0.000000 -0.000000 -0.000000 8.207792 -6.751710 -1.599556 -0.074518 -0.000003 0.000081 -0.000002 -44.370014 0.346960 0.148822 0.000002 0.000000 -0.000001 -44.423664 -3.044403 -0.074314 0.000000 -0.000002 -0.000004 -8.728671 10.710558 0.000007 -0.000000 -0.000000 0.000000 -0.000680 9.278137 -0.000000 0.000000 -0.000001 
0.000006 104.270477 1.554256 0.000010 0.000003 -0.000113 -0.000005 10.181587 0.131522 0.000001 -0.000003 0.000084 -0.000000 9.893967 -1.470711 0.000001 0.000000 -0.000000 -0.000000 9.220802 -1.370642 0.000000 -0.000000 -0.000000 0.000001 16.740433 -2.049030 0.000000 -0.000000 -0.000000 0.000000 9.617859 1.685014 0.000000 0.000000 0.000000 0.000002 22.037384 7.501101 0.000000 -0.000000 0.000000 -4.569968 11.014880 -2.160881 0.000008 0.000001 -0.000038 -10.592821 -0.524832 -2.231792 82.540971 50.534442 -45.001620 -27.841412 0.000002 0.000628 9.410179 113.636139 -14.347197 -28.328829 0.000002 0.000042 -0.000322 -0.000042 0.000004 -2.464340 -1.573870 2.682206 -50.623494 -136.221566 -15.723329 -3.214785 -1.872468 1.924616 120.974699 -8.121396 130.064396 -2.654677 -1.527625 1.512954 125.921832 17.355053 95.323828 -2.018833 -1.152016 1.108048 -0.000006 0.000002 0.000002 -9.108355 -0.517749 2.260354 157.679165 10.206463 -48.940471 -3.700003 0.000045 0.001769 161.592208 12.199292 -66.667605 -2.850044 0.000078 0.000029 164.622736 10.437006 -68.151641 -2.772160 -0.000011 -0.000017 0.000001 -0.000002 0.000002 -9.532561 0.000050 0.000504 159.607259 9.039147 -48.226084 -3.700027 0.000029 0.004274 162.598322 12.390633 -70.103805 -2.950027 0.000065 -0.001500 164.798135 9.195486 -62.095900 -2.946623 -0.000013 -0.000157 -0.000004 0.000000 0.000002 -9.103654 -0.042961 -1.864600 162.971811 7.100109 -44.731179 -3.379311 0.000074 -0.000520 163.683202 7.618934 -49.953067 -2.889746 0.000094 0.000928 166.276912 5.560043 -44.363540 -2.638816 -0.000015 0.000939 -0.000000 -0.000001 0.000003 -8.076686 -0.486591 -3.805735 167.934776 4.428539 -38.823922 -3.600007 0.000121 -0.003202 168.296708 1.366517 -9.982502 -2.099986 0.000116 -0.005179 168.113645 1.463005 -11.878681 -2.115786 -0.000038 -0.003680 0.000001 0.000002 -0.000005 4.570446 11.014691 -2.160851 -0.000018 0.000010 -0.000021 10.592530 -0.524531 -2.232392 70.759749 -66.793998 50.177551 27.841707 -0.000080 -0.000073 63.717981 -112.187203 85.512759 28.328840 -0.000012 0.000017 0.000027 -0.000088 -0.000000 2.466179 -1.576135 2.681884 116.465831 166.243212 -161.411577 3.217838 -1.871975 1.916559 -87.818522 30.724923 33.845319 2.656056 -1.528751 1.514626 -92.218147 29.559419 36.482670 2.020883 -1.154055 1.115164 0.000007 0.000009 0.000006 9.109108 -0.517715 2.260000 -160.118690 -11.886810 -61.405552 3.699757 0.000284 -0.000184 199.158126 -13.093431 291.550340 2.849788 0.000332 0.000488 18.509736 -168.353959 115.920126 2.774870 -0.000012 -0.000044 0.000002 -0.000001 0.000001 9.533228 0.000386 0.000200 -157.980472 -10.366525 -49.979380 3.699844 0.000334 -0.000071 204.312951 -10.607912 313.375199 2.949871 0.000347 0.000108 205.106892 -9.363607 319.608867 2.952877 -0.000031 0.000053 -0.000003 -0.000003 -0.000001 9.104399 -0.042650 -1.864909 24.418548 -170.928312 139.726628 3.149872 0.000394 0.000213 26.871214 -172.109798 147.790650 2.949893 0.000421 0.000214 29.640036 186.986756 -205.988424 2.644314 0.000044 0.000046 0.000002 0.000000 -0.000002 8.077653 -0.486519 -3.806097 25.344245 -170.713079 139.163465 3.599870 0.000424 0.014892 207.175825 -4.381581 -379.380754 2.099971 0.000390 0.007872 210.903947 -2.218387 -9.342983 2.125514 -0.000013 0.007521 -0.000003 0.000000 -0.000001 -8.207786 -6.751667 -1.599560 -0.077001 -0.000003 0.000080 -0.000002 -44.370110 0.345938 0.153719 -0.000000 -0.000000 0.000000 -44.423679 -3.043532 -0.076700 0.000000 -0.000002 -0.000006 -8.728667 10.710559 -0.000009 -0.000000 -0.000000 -0.000001 -0.000679 9.278123 0.000000 -0.000000 -0.000000 8.207792 -6.751710 -1.599556 -0.074518 -0.000003 0.000081 -0.000002 -44.370014 0.346960 0.148822 0.000002 0.000000 -0.000001 -44.423664 -3.044403 -0.074314 0.000000 -0.000002 -0.000004 -8.728671 10.710558 0.000007 -0.000000 -0.000000 0.000000 -0.000680 9.278137 -0.000000 0.000000 -0.000001 
